<svg width="480" height="480" xmlns="http://www.w3.org/2000/svg">
 <g>
  <title>background</title>
  <rect fill="none" id="canvas_background" height="482" width="482" y="-1" x="-1"/>
 </g>

 <g>
  <title>Layer 1</title>
  <path id="svg_1" fill="#FFF0DD" d="m440,124l-88,0l-22.784,-39.88c-5.698,-9.969 -16.301,-16.121 -27.784,-16.12l-122.864,0c-11.483,-0.001 -22.086,6.151 -27.784,16.12l-22.784,39.88l-88,0c-17.673,0 -32,14.327 -32,32l0,224c0,17.673 14.327,32 32,32l400,0c17.673,0 32,-14.327 32,-32l0,-224c0,-17.673 -14.327,-32 -32,-32zm-240,-32l80,0l0,48l-80,0l0,-48zm128,272l-264,0l0,-192l264,0l0,192zm72,-40c-22.091,0 -40,-17.909 -40,-40s17.909,-40 40,-40s40,17.909 40,40s-17.909,40 -40,40z"/>
  <g id="svg_2">
   <path id="svg_3" fill="#A7ADF0" d="m368,92l64,0l0,32l-64,0l0,-32z"/>
   <path id="svg_4" fill="#A7ADF0" d="m48,100l48,0l0,24l-48,0l0,-24z"/>
  </g>
  <path id="svg_5" fill="#898890" d="m200,92l80,0l0,48l-80,0l0,-48z"/>
  <path id="svg_6" fill="#57565C" d="m64,172l264,0l0,192l-264,0l0,-192z"/>
  <g id="svg_7">
   <path id="svg_8" fill="#A7ADF0" d="m400,244l0,40l40,0c0,-22.091 -17.909,-40 -40,-40z"/>
   <path id="svg_9" fill="#A7ADF0" d="m400,324c22.091,0 40,-17.909 40,-40l-40,0l0,40z"/>
   <path id="svg_10" fill="#A7ADF0" d="m360,284c0,22.091 17.909,40 40,40l0,-40l-40,0z"/>
   <path id="svg_11" fill="#A7ADF0" d="m400,244c-22.091,0 -40,17.909 -40,40l40,0l0,-40z"/>
  </g>
  <g id="svg_12">
   <path id="svg_13" fill="#231F20" d="m440,116l0,-24c0,-4.418 -3.582,-8 -8,-8l-64,0c-4.418,0 -8,3.582 -8,8l0,24l-3.352,0l-20.488,-35.84c-7.132,-12.452 -20.378,-20.142 -34.728,-20.16l-122.864,0c-14.35,0.018 -27.596,7.708 -34.728,20.16l-20.488,35.84l-19.352,0l0,-16c0,-4.418 -3.582,-8 -8,-8l-48,0c-4.418,0 -8,3.582 -8,8l0,16c-22.08,0.026 -39.974,17.92 -40,40l0,224c0.026,22.08 17.92,39.974 40,40l400,0c22.08,-0.026 39.974,-17.92 40,-40l0,-224c-0.026,-22.08 -17.92,-39.974 -40,-40zm-64,-16l48,0l0,16l-48,0l0,-16zm-320,8l32,0l0,8l-32,0l0,-8zm408,272c0,13.255 -10.745,24 -24,24l-400,0c-13.255,0 -24,-10.745 -24,-24l0,-224c0,-13.255 10.745,-24 24,-24l88,0c2.864,0.006 5.512,-1.52 6.944,-4l22.784,-39.872c4.275,-7.481 12.223,-12.107 20.84,-12.128l122.864,0c8.596,0.029 16.524,4.64 20.8,12.096l22.824,39.904c1.432,2.48 4.08,4.006 6.944,4l88,0c13.255,0 24,10.745 24,24l0,224z"/>
   <path id="svg_14" fill="#231F20" d="m200,148l80,0c4.418,0 8,-3.582 8,-8l0,-48c0,-4.418 -3.582,-8 -8,-8l-80,0c-4.418,0 -8,3.582 -8,8l0,48c0,4.418 3.582,8 8,8zm8,-48l64,0l0,32l-64,0l0,-32z"/>
   <path id="svg_15" fill="#231F20" d="m328,164l-264,0c-4.418,0 -8,3.582 -8,8l0,192c0,4.418 3.582,8 8,8l264,0c4.418,0 8,-3.582 8,-8l0,-192c0,-4.418 -3.582,-8 -8,-8zm-8,192l-248,0l0,-176l248,0l0,176z"/>
   <path id="svg_16" fill="#231F20" d="m400,236c-26.51,0 -48,21.49 -48,48s21.49,48 48,48s48,-21.49 48,-48c-0.026,-26.499 -21.501,-47.974 -48,-48zm30.864,40l-22.864,0l0,-22.864c11.195,2.927 19.937,11.669 22.864,22.864zm-38.864,-22.864l0,22.864l-22.864,0c2.927,-11.195 11.669,-19.937 22.864,-22.864zm-22.864,38.864l22.864,0l0,22.864c-11.195,-2.927 -19.937,-11.669 -22.864,-22.864zm38.864,22.864l0,-22.864l22.864,0c-2.927,11.195 -11.669,19.937 -22.864,22.864z"/>
   <path id="svg_17" fill="#231F20" d="m368,164l16,0c4.418,0 8,-3.582 8,-8s-3.582,-8 -8,-8l-16,0c-4.418,0 -8,3.582 -8,8s3.582,8 8,8z"/>
   <path id="svg_18" fill="#231F20" d="m416,164l16,0c4.418,0 8,-3.582 8,-8s-3.582,-8 -8,-8l-16,0c-4.418,0 -8,3.582 -8,8s3.582,8 8,8z"/>
  </g>
  <g id="svg_19"/>
  <g id="svg_20"/>
  <g id="svg_21"/>
  <g id="svg_22"/>
  <g id="svg_23"/>
  <g id="svg_24"/>
  <g id="svg_25"/>
  <g id="svg_26"/>
  <g id="svg_27"/>
  <g id="svg_28"/>
  <g id="svg_29"/>
  <g id="svg_30"/>
  <g id="svg_31"/>
  <g id="svg_32"/>
  <g id="svg_33"/>
  <rect id="svg_34" height="175.99999" width="248.999993" y="179.499998" x="72.500006" stroke-width="null" fill="#898890"/>
  <text fill="#ffffff" stroke-width="0" x="185.980685" y="257.897571" id="svg_52" font-size="19" font-family="Helvetica, Arial, sans-serif" text-anchor="start" xml:space="preserve" transform="matrix(1.370495618102325,0,0,1.3235293626785278,-89.10436396842948,-66.79364795424044) " stroke="#000">.......</text>
 </g>
</svg>