<svg width="480" height="480" xmlns="http://www.w3.org/2000/svg">
 <g>
  <title>background</title>
  <rect x="-1" y="-1" width="482" height="482" id="canvas_background" fill="none"/>
 </g>

 <g>
  <title>Layer 1</title>
  <path d="m440,124l-88,0l-22.784,-39.88c-5.698,-9.969 -16.301,-16.121 -27.784,-16.12l-122.864,0c-11.483,-0.001 -22.086,6.151 -27.784,16.12l-22.784,39.88l-88,0c-17.673,0 -32,14.327 -32,32l0,224c0,17.673 14.327,32 32,32l400,0c17.673,0 32,-14.327 32,-32l0,-224c0,-17.673 -14.327,-32 -32,-32zm-240,-32l80,0l0,48l-80,0l0,-48zm128,272l-264,0l0,-192l264,0l0,192zm72,-40c-22.091,0 -40,-17.909 -40,-40s17.909,-40 40,-40s40,17.909 40,40s-17.909,40 -40,40z" fill="#FFF0DD" id="svg_1"/>
  <g id="svg_2">
   <path d="m368,92l64,0l0,32l-64,0l0,-32z" fill="#A7ADF0" id="svg_3"/>
   <path d="m48,100l48,0l0,24l-48,0l0,-24z" fill="#A7ADF0" id="svg_4"/>
  </g>
  <path d="m200,92l80,0l0,48l-80,0l0,-48z" fill="#898890" id="svg_5"/>
  <path d="m64,172l264,0l0,192l-264,0l0,-192z" fill="#57565C" id="svg_6"/>
  <g id="svg_7">
   <path d="m400,244l0,40l40,0c0,-22.091 -17.909,-40 -40,-40z" fill="#A7ADF0" id="svg_8"/>
   <path d="m400,324c22.091,0 40,-17.909 40,-40l-40,0l0,40z" fill="#A7ADF0" id="svg_9"/>
   <path d="m360,284c0,22.091 17.909,40 40,40l0,-40l-40,0z" fill="#A7ADF0" id="svg_10"/>
   <path d="m400,244c-22.091,0 -40,17.909 -40,40l40,0l0,-40z" fill="#A7ADF0" id="svg_11"/>
  </g>
  <g id="svg_12">
   <path d="m440,116l0,-24c0,-4.418 -3.582,-8 -8,-8l-64,0c-4.418,0 -8,3.582 -8,8l0,24l-3.352,0l-20.488,-35.84c-7.132,-12.452 -20.378,-20.142 -34.728,-20.16l-122.864,0c-14.35,0.018 -27.596,7.708 -34.728,20.16l-20.488,35.84l-19.352,0l0,-16c0,-4.418 -3.582,-8 -8,-8l-48,0c-4.418,0 -8,3.582 -8,8l0,16c-22.08,0.026 -39.974,17.92 -40,40l0,224c0.026,22.08 17.92,39.974 40,40l400,0c22.08,-0.026 39.974,-17.92 40,-40l0,-224c-0.026,-22.08 -17.92,-39.974 -40,-40zm-64,-16l48,0l0,16l-48,0l0,-16zm-320,8l32,0l0,8l-32,0l0,-8zm408,272c0,13.255 -10.745,24 -24,24l-400,0c-13.255,0 -24,-10.745 -24,-24l0,-224c0,-13.255 10.745,-24 24,-24l88,0c2.864,0.006 5.512,-1.52 6.944,-4l22.784,-39.872c4.275,-7.481 12.223,-12.107 20.84,-12.128l122.864,0c8.596,0.029 16.524,4.64 20.8,12.096l22.824,39.904c1.432,2.48 4.08,4.006 6.944,4l88,0c13.255,0 24,10.745 24,24l0,224z" fill="#231F20" id="svg_13"/>
   <path d="m200,148l80,0c4.418,0 8,-3.582 8,-8l0,-48c0,-4.418 -3.582,-8 -8,-8l-80,0c-4.418,0 -8,3.582 -8,8l0,48c0,4.418 3.582,8 8,8zm8,-48l64,0l0,32l-64,0l0,-32z" fill="#231F20" id="svg_14"/>
   <path d="m328,164l-264,0c-4.418,0 -8,3.582 -8,8l0,192c0,4.418 3.582,8 8,8l264,0c4.418,0 8,-3.582 8,-8l0,-192c0,-4.418 -3.582,-8 -8,-8zm-8,192l-248,0l0,-176l248,0l0,176z" fill="#231F20" id="svg_15"/>
   <path d="m400,236c-26.51,0 -48,21.49 -48,48s21.49,48 48,48s48,-21.49 48,-48c-0.026,-26.499 -21.501,-47.974 -48,-48zm30.864,40l-22.864,0l0,-22.864c11.195,2.927 19.937,11.669 22.864,22.864zm-38.864,-22.864l0,22.864l-22.864,0c2.927,-11.195 11.669,-19.937 22.864,-22.864zm-22.864,38.864l22.864,0l0,22.864c-11.195,-2.927 -19.937,-11.669 -22.864,-22.864zm38.864,22.864l0,-22.864l22.864,0c-2.927,11.195 -11.669,19.937 -22.864,22.864z" fill="#231F20" id="svg_16"/>
   <path d="m368,164l16,0c4.418,0 8,-3.582 8,-8s-3.582,-8 -8,-8l-16,0c-4.418,0 -8,3.582 -8,8s3.582,8 8,8z" fill="#231F20" id="svg_17"/>
   <path d="m416,164l16,0c4.418,0 8,-3.582 8,-8s-3.582,-8 -8,-8l-16,0c-4.418,0 -8,3.582 -8,8s3.582,8 8,8z" fill="#231F20" id="svg_18"/>
  </g>
  <g id="svg_19"/>
  <g id="svg_20"/>
  <g id="svg_21"/>
  <g id="svg_22"/>
  <g id="svg_23"/>
  <g id="svg_24"/>
  <g id="svg_25"/>
  <g id="svg_26"/>
  <g id="svg_27"/>
  <g id="svg_28"/>
  <g id="svg_29"/>
  <g id="svg_30"/>
  <g id="svg_31"/>
  <g id="svg_32"/>
  <g id="svg_33"/>
  <rect fill="#898890" stroke-width="null" x="72.500006" y="179.499998" width="248.999993" height="175.99999" id="svg_34"/>
  <text stroke="#000" transform="matrix(1.370495618102325,0,0,1.3235293626785278,-89.10436396842948,-66.79364795424044) " xml:space="preserve" text-anchor="start" font-family="Helvetica, Arial, sans-serif" font-size="24" id="svg_35" y="217.097569" x="121.040674" stroke-width="0" fill="#ffffff">You are the best</text>
  <text stroke="#000" transform="matrix(1.370495618102325,0,0,1.3235293626785278,-89.10436396842948,-66.79364795424044) " xml:space="preserve" text-anchor="start" font-family="Helvetica, Arial, sans-serif" font-size="24" id="svg_36" y="246.564237" x="123.229663" stroke-width="0" fill="#ffffff">mom ever!</text>
  <path stroke="null" id="svg_37" d="m130.682731,290.986188c13.605742,-36.620325 66.913484,0 0,47.083275c-66.913484,-47.083275 -13.605742,-83.7036 0,-47.083275z" stroke-opacity="null" stroke-width="null" fill="#f21f49"/>
  <path stroke="null" id="svg_38" d="m264.68273,289.98619c13.60574,-36.62033 66.91349,0 0,47.08327c-66.91348,-47.08327 -13.60574,-83.7036 0,-47.08327z" stroke-opacity="null" stroke-width="null" fill="#f21f49"/>
 </g>
</svg>