<?xml version="1.0" encoding="iso-8859-1"?>
<!-- Generator: Adobe Illustrator 19.0.0, SVG Export Plug-In . SVG Version: 6.00 Build 0)  -->
<svg version="1.1" id="Capa_1" xmlns="http://www.w3.org/2000/svg" xmlns:xlink="http://www.w3.org/1999/xlink" x="0px" y="0px"
	 viewBox="0 0 480 480" style="enable-background:new 0 0 480 480;" xml:space="preserve">
<path style="fill:#FFF0DD;" d="M440,124h-88l-22.784-39.88c-5.698-9.969-16.301-16.121-27.784-16.12H178.568
	c-11.483-0.001-22.086,6.151-27.784,16.12L128,124H40c-17.673,0-32,14.327-32,32v224c0,17.673,14.327,32,32,32h400
	c17.673,0,32-14.327,32-32V156C472,138.327,457.673,124,440,124z M200,92h80v48h-80V92z M328,364H64V172h264V364z M400,324
	c-22.091,0-40-17.909-40-40s17.909-40,40-40s40,17.909,40,40S422.091,324,400,324z"/>
<g>
	<path style="fill:#A7ADF0;" d="M368,92h64v32h-64V92z"/>
	<path style="fill:#A7ADF0;" d="M48,100h48v24H48V100z"/>
</g>
<path style="fill:#898890;" d="M200,92h80v48h-80V92z"/>
<path style="fill:#57565C;" d="M64,172h264v192H64V172z"/>
<g>
	<path style="fill:#A7ADF0;" d="M400,244v40h40C440,261.909,422.091,244,400,244z"/>
	<path style="fill:#A7ADF0;" d="M400,324c22.091,0,40-17.909,40-40h-40V324z"/>
	<path style="fill:#A7ADF0;" d="M360,284c0,22.091,17.909,40,40,40v-40H360z"/>
	<path style="fill:#A7ADF0;" d="M400,244c-22.091,0-40,17.909-40,40h40V244z"/>
</g>
<g>
	<path style="fill:#231F20;" d="M440,116V92c0-4.418-3.582-8-8-8h-64c-4.418,0-8,3.582-8,8v24h-3.352L336.16,80.16
		c-7.132-12.452-20.378-20.142-34.728-20.16H178.568c-14.35,0.018-27.596,7.708-34.728,20.16L123.352,116H104v-16
		c0-4.418-3.582-8-8-8H48c-4.418,0-8,3.582-8,8v16c-22.08,0.026-39.974,17.92-40,40v224c0.026,22.08,17.92,39.974,40,40h400
		c22.08-0.026,39.974-17.92,40-40V156C479.974,133.92,462.08,116.026,440,116z M376,100h48v16h-48V100z M56,108h32v8H56V108z
		 M464,380c0,13.255-10.745,24-24,24H40c-13.255,0-24-10.745-24-24V156c0-13.255,10.745-24,24-24h88c2.864,0.006,5.512-1.52,6.944-4
		l22.784-39.872c4.275-7.481,12.223-12.107,20.84-12.128h122.864c8.596,0.029,16.524,4.64,20.8,12.096L345.056,128
		c1.432,2.48,4.08,4.006,6.944,4h88c13.255,0,24,10.745,24,24V380z"/>
	<path style="fill:#231F20;" d="M200,148h80c4.418,0,8-3.582,8-8V92c0-4.418-3.582-8-8-8h-80c-4.418,0-8,3.582-8,8v48
		C192,144.418,195.582,148,200,148z M208,100h64v32h-64V100z"/>
	<path style="fill:#231F20;" d="M328,164H64c-4.418,0-8,3.582-8,8v192c0,4.418,3.582,8,8,8h264c4.418,0,8-3.582,8-8V172
		C336,167.582,332.418,164,328,164z M320,356H72V180h248V356z"/>
	<path style="fill:#231F20;" d="M400,236c-26.51,0-48,21.49-48,48s21.49,48,48,48s48-21.49,48-48
		C447.974,257.501,426.499,236.026,400,236z M430.864,276H408v-22.864C419.195,256.063,427.937,264.805,430.864,276z M392,253.136
		V276h-22.864C372.063,264.805,380.805,256.063,392,253.136z M369.136,292H392v22.864C380.805,311.937,372.063,303.195,369.136,292z
		 M408,314.864V292h22.864C427.937,303.195,419.195,311.937,408,314.864z"/>
	<path style="fill:#231F20;" d="M368,164h16c4.418,0,8-3.582,8-8s-3.582-8-8-8h-16c-4.418,0-8,3.582-8,8S363.582,164,368,164z"/>
	<path style="fill:#231F20;" d="M416,164h16c4.418,0,8-3.582,8-8s-3.582-8-8-8h-16c-4.418,0-8,3.582-8,8S411.582,164,416,164z"/>
</g>
<g>
</g>
<g>
</g>
<g>
</g>
<g>
</g>
<g>
</g>
<g>
</g>
<g>
</g>
<g>
</g>
<g>
</g>
<g>
</g>
<g>
</g>
<g>
</g>
<g>
</g>
<g>
</g>
<g>
</g>
</svg>
